<?xml version="1.0" encoding="iso-8859-1"?>
<!-- Generator: Adobe Illustrator 19.0.0, SVG Export Plug-In . SVG Version: 6.00 Build 0)  -->
<svg version="1.1" id="Layer_1" xmlns="http://www.w3.org/2000/svg" xmlns:xlink="http://www.w3.org/1999/xlink" x="0px" y="0px"
	 viewBox="0 0 392.533 392.533" style="enable-background:new 0 0 392.533 392.533;" xml:space="preserve">
<g>
	<path style="fill:#FFFFFF;" d="M133.366,239.838c4.655-27.41,17.778-51.976,36.719-70.853h-28.638v24.63
		c0,6.012-4.848,10.925-10.925,10.925c-6.077,0-10.925-4.848-10.925-10.925v-24.63H87.402c-6.012,0-10.925-4.848-10.925-10.925
		c0-6.012,4.848-10.925,10.925-10.925h32.194v-16.614L78.158,74.602c-3.556-4.848-2.521-11.636,2.263-15.192
		c4.848-3.556,11.636-2.521,15.192,2.263l34.78,46.998l34.78-46.998c3.556-4.848,10.408-5.883,15.192-2.263
		c4.848,3.556,5.883,10.408,2.263,15.192l-41.244,55.855v16.679h32.259c5.495,0,10.02,4.073,10.731,9.438
		c15.838-11.83,34.457-20.04,54.626-23.661C238.61,73.115,190.19,21.786,130.457,21.786c-59.992,0-108.735,48.937-108.735,109.059
		C21.786,190.642,69.236,240.097,133.366,239.838z"/>
	<path style="fill:#FFFFFF;" d="M370.747,261.689c0-60.121-48.743-109.059-108.735-109.059s-108.735,48.937-108.735,109.059
		s48.808,109.059,108.735,109.059C322.004,370.747,370.747,321.81,370.747,261.689z"/>
</g>
<path style="fill:#FFC10D;" d="M262.012,348.832c-47.903,0-86.95-39.111-86.95-87.273c0-48.032,39.046-87.273,86.95-87.273
	s86.949,39.111,86.949,87.273C348.962,309.657,309.915,348.832,262.012,348.832z"/>
<path style="fill:#56ACE0;" d="M216.889,139.83c0.323-3.038,0.453-6.077,0.453-9.18c0-48.032-39.046-87.273-86.949-87.273
	s-86.949,39.111-86.949,87.273c0,48.032,39.046,87.273,86.949,87.273c3.297,0,6.659-0.259,9.891-0.646
	C153.406,181.592,181.527,153.147,216.889,139.83z"/>
<path d="M260.267,250.828h0.065C260.719,250.828,260.396,250.828,260.267,250.828z"/>
<path d="M262.077,272.743h-0.065C261.624,272.743,262.012,272.743,262.077,272.743z"/>
<g>
	<path style="fill:#194F82;" d="M262.012,217.923c9.568,0,17.39,7.822,17.39,17.455c0,4.913,4.008,8.986,8.986,8.986
		c4.978,0,8.986-4.008,8.986-8.986c0-16.485-11.184-30.19-26.376-34.263v-8.275c0-4.913-4.008-8.986-8.986-8.986
		c-4.978,0-8.986,4.008-8.986,8.986v8.275c-15.127,4.008-26.376,17.778-26.376,34.263c0,19.523,15.838,35.362,35.362,35.362
		c0.129,0,0.129,0,0.065,0c8.986,0.711,17.325,8.21,17.325,17.325c0,9.632-7.822,17.455-17.39,17.455
		c-9.568,0-17.39-7.822-17.39-17.455c0-4.978-4.008-8.986-8.986-8.986s-8.986,4.008-8.986,8.986
		c0,16.485,11.184,30.19,26.376,34.263v8.275c0,4.913,4.008,8.986,8.986,8.986c4.978,0,8.986-4.008,8.986-8.986v-8.275
		c15.127-4.008,26.376-17.778,26.376-34.263c0-19.523-17.261-35.297-36.719-35.297c-0.129,0-0.129,0-0.065,0
		c-8.986-0.711-15.968-8.275-15.968-17.39C244.622,225.681,252.444,217.923,262.012,217.923z"/>
	<path style="fill:#194F82;" d="M262.012,130.909c-0.323,0-0.711,0-1.034,0C260.59,59.022,202.279,0,130.457,0
		C58.57,0,0,58.699,0,130.844c0,71.952,56.824,130.457,131.491,130.844l0,0c0,72.145,58.57,130.844,130.521,130.844
		s130.521-58.699,130.521-130.844S333.964,130.909,262.012,130.909z M21.786,130.844c0-60.121,48.743-109.059,108.735-109.059
		c59.733,0,108.154,51.329,108.541,111.127c-20.17,3.62-38.788,11.83-54.626,23.661c-0.711-5.301-5.236-9.438-10.731-9.438h-32.323
		v-16.614l41.438-55.919c3.556-4.848,2.521-11.636-2.263-15.192c-4.848-3.556-11.636-2.521-15.192,2.263l-34.78,46.998
		l-34.78-46.998c-3.556-4.848-10.408-5.883-15.192-2.263c-4.848,3.556-5.883,10.408-2.263,15.192l41.438,55.919v16.614H87.596
		c-6.012,0-10.925,4.848-10.925,10.925s4.848,10.925,10.925,10.925h32.194v24.63c0,6.012,4.848,10.925,10.925,10.925
		c6.077,0,10.925-4.848,10.925-10.925v-24.63h28.638c-18.941,18.877-32.065,43.442-36.719,70.853
		C69.236,240.097,21.786,190.642,21.786,130.844z M262.012,370.747c-59.992,0-108.735-48.937-108.735-109.059
		s48.808-108.994,108.735-108.994s108.735,48.937,108.735,109.059S322.004,370.747,262.012,370.747z"/>
</g>
<g>
</g>
<g>
</g>
<g>
</g>
<g>
</g>
<g>
</g>
<g>
</g>
<g>
</g>
<g>
</g>
<g>
</g>
<g>
</g>
<g>
</g>
<g>
</g>
<g>
</g>
<g>
</g>
<g>
</g>
</svg>
